<svg width="40" height="40" viewBox="0 0 40 40" fill="none" xmlns="http://www.w3.org/2000/svg">
<g clip-path="url(#clip0_41_95)">
<rect width="40" height="39.9995" rx="19.9998" fill="white"/>
<path d="M24.8627 15.9999C24.8627 13.2385 22.6242 11 19.8627 11C17.1013 11 14.8627 13.2385 14.8627 15.9999V19.1902C14.8627 20.3073 14.3883 21.3716 13.5581 22.1189L12.4506 23.1159C11.689 23.8014 11.932 25.0518 12.895 25.402L13.1059 25.4782L13.5161 25.6227C17.7691 27.0642 22.3911 27.0157 26.6196 25.4782L26.8305 25.402C27.7333 25.0737 28.0041 23.9541 27.4067 23.2507L27.2748 23.1159L26.1674 22.1189C25.3371 21.3716 24.8628 20.3073 24.8627 19.1902V15.9999ZM21.4545 28.609C20.3944 28.6867 19.3301 28.6867 18.27 28.609C18.7625 28.8556 19.3159 28.9996 19.8627 28.9996C20.4092 28.9996 20.9622 28.8554 21.4545 28.609ZM26.8627 19.1902C26.8628 19.7404 27.0964 20.2645 27.5053 20.6326L28.6127 21.6296L28.7827 21.7927C30.4573 23.5158 29.8209 26.442 27.5141 27.2809L27.3032 27.358C26.4464 27.6695 25.5747 27.9241 24.6938 28.1246C23.8028 29.9155 21.7593 30.9995 19.8627 30.9995C17.966 30.9995 15.9216 29.9158 15.0307 28.1246C14.3047 27.9593 13.5847 27.7579 12.8745 27.5172L12.4223 27.358L12.2114 27.2809C9.83009 26.415 9.22935 23.3246 11.1127 21.6296L12.2202 20.6326C12.6291 20.2645 12.8627 19.7404 12.8627 19.1902V15.9999C12.8627 12.1339 15.9967 9 19.8627 9C23.7287 9 26.8627 12.1339 26.8627 15.9999V19.1902Z" fill="black"/>
</g>
<defs>
<clipPath id="clip0_41_95">
<rect width="40" height="39.9995" rx="19.9998" fill="white"/>
</clipPath>
</defs>
</svg>
